<?xml version="1.0" encoding="UTF-8"?>
<svg id="Layer_2" data-name="Layer 2" xmlns="http://www.w3.org/2000/svg" viewBox="0 0 95.35 82.21">
  <defs>
    <style>
      .cls-1 {
        fill: #00a651;
      }

      .cls-2 {
        fill: #231f20;
      }

      .cls-3 {
        fill: #ed1c24;
      }

      .cls-4 {
        fill: #d1d1d1;
      }
    </style>
  </defs>
  <g id="Layer_2-2" data-name="Layer 2">
    <polygon class="cls-4" points="82.82 82.21 0 82.21 12.53 0 95.35 0 82.82 82.21"/>
    <g>
      <path class="cls-2" d="M79.36,1.98l-.85,5.16h-17.46l.68-4.08c1.83-.72,3.9-1.08,6.2-1.08,0,0,11.43,0,11.43,0Z"/>
      <polygon class="cls-2" points="75.49 27.44 74.64 32.51 72.87 32.51 73.67 27.44 75.49 27.44"/>
      <polygon class="cls-2" points="73.67 27.44 72.87 32.51 62.6 32.51 63.46 27.44 73.67 27.44"/>
      <path class="cls-2" d="M61.91,1.98h6.02c-2.3,0-4.37.36-6.2,1.08l.18-1.08Z"/>
      <path class="cls-2" d="M61.05,7.14h5.93c-4.53,0-7.19,2.27-8,6.8l-2.15,13.5h-5.67l2.15-13.5c.45-2.69,1.41-4.95,2.88-6.8,0,0,4.86,0,4.86,0Z"/>
      <polygon class="cls-2" points="63.46 27.44 62.6 32.51 55.97 32.51 50.3 32.51 43.93 32.51 38.26 32.51 34.99 32.51 35.76 27.44 39.12 27.44 44.79 27.44 51.16 27.44 56.83 27.44 63.46 27.44"/>
      <path class="cls-2" d="M61.91,1.98l-.18,1.08c-1.33.51-2.53,1.22-3.61,2.11-.72.59-1.37,1.25-1.93,1.97h-1.25c-4.53,0-7.19,2.27-8,6.8l-2.15,13.5h-5.67l2.15-13.5c.63-3.73,2.23-6.65,4.81-8.77s5.85-3.19,9.81-3.19c0,0,6.02,0,6.02,0Z"/>
      <path class="cls-2" d="M61.73,3.06l-.68,4.08h-4.86c.56-.72,1.21-1.38,1.93-1.97,1.08-.89,2.28-1.6,3.61-2.11Z"/>
      <path class="cls-3" d="M54.94,7.14h1.25c-1.47,1.85-2.43,4.11-2.88,6.8l-2.15,13.5h-6.37l2.15-13.5c.81-4.53,3.47-6.8,8-6.8Z"/>
      <path class="cls-2" d="M55.97,32.51l-5.85,35.78c-.41,2.67-1.34,4.94-2.78,6.79h-10.89c4.53,0,7.2-2.26,8-6.79l5.85-35.78h5.67Z"/>
      <path class="cls-1" d="M50.3,32.51l-5.85,35.78c-.8,4.53-3.47,6.79-8,6.79h-1.15c1.44-1.85,2.37-4.12,2.79-6.79l5.84-35.78s6.37,0,6.37,0Z"/>
      <path class="cls-2" d="M36.45,75.08h10.89c-.57.72-1.21,1.38-1.94,1.98-2.59,2.12-5.85,3.18-9.81,3.18h-7.57l.09-.55c1.99-.51,3.74-1.39,5.25-2.63.73-.6,1.37-1.26,1.94-1.98h1.15Z"/>
      <path class="cls-2" d="M43.93,32.51l-5.84,35.78c-.42,2.67-1.35,4.94-2.79,6.79h-10.89c4.53,0,7.2-2.26,8-6.79l.58-3.53h1.66l.77-5.16h-1.59l4.43-27.09s5.67,0,5.67,0Z"/>
      <polygon class="cls-2" points="35.76 27.44 34.99 32.51 23.65 32.51 24.46 27.44 35.76 27.44"/>
      <polygon class="cls-2" points="35.42 59.6 34.65 64.76 32.99 64.76 33.83 59.6 35.42 59.6"/>
      <path class="cls-2" d="M28.88,75.08h6.42c-.57.72-1.21,1.38-1.94,1.98-1.51,1.24-3.26,2.12-5.25,2.63,0,0,.77-4.61.77-4.61Z"/>
      <path class="cls-2" d="M28.88,75.08l-.77,4.61c-1.4.37-2.92.55-4.56.55h-7.57l.86-5.16s12.04,0,12.04,0Z"/>
      <path class="cls-2" d="M28.11,79.69l-.09.55h-4.47c1.64,0,3.16-.18,4.56-.55Z"/>
      <polygon class="cls-2" points="24.46 27.44 23.65 32.51 22.95 32.51 23.72 27.44 24.46 27.44"/>
    </g>
  </g>
</svg>