<?xml version="1.0" encoding="UTF-8"?>
<svg id="Layer_2" data-name="Layer 2" xmlns="http://www.w3.org/2000/svg" viewBox="0 0 190.02 81.7">
  <defs>
    <style>
      .cls-1 {
        fill: #00a651;
      }

      .cls-2 {
        fill: #ed1c24;
      }

      .cls-3 {
        fill: #d1d1d1;
      }
    </style>
  </defs>
  <g id="Layer_2-2" data-name="Layer 2">
    <g id="Layer_1-2" data-name="Layer 1-2">
      <g>
        <polygon class="cls-3" points="190.02 3.44 189.16 8.6 116.88 8.6 117.7 3.44 190.02 3.44"/>
        <path class="cls-3" d="M189.59,18.92l-7.57,48.08c-.8,4.7-2.75,8.32-5.84,10.88-3.1,2.55-7.12,3.82-12.04,3.82h-94.26c3.96,0,7.22-1.06,9.81-3.18.73-.6,1.37-1.26,1.94-1.98h83.45c3.1,0,5.62-.81,7.57-2.45,1.95-1.63,3.18-4,3.7-7.09l.6-4.04,1.46-9.03-2.32-.06c1.92-2.12,3.15-4.91,3.7-8.37l1.46-9.89c.52-3.24.26-5.91-.76-7.99l2.13-.53,1.29-8.17h5.68Z"/>
        <path class="cls-3" d="M182.62,27.09l-2.13.53c-.23-.46-.49-.9-.79-1.3-1.66-2.24-4.3-3.35-7.91-3.35s-6.6,1.08-8.94,3.26c-2.36,2.18-3.85,5.19-4.48,9.03l-.06.38-.19-.03c.68-4.22.27-7.76-1.24-10.63.6-.8,1.27-1.54,2.01-2.23,3.32-3.12,7.42-4.69,12.3-4.69,3.38,0,6.07.81,8.08,2.41,2.01,1.61,3.12,3.81,3.35,6.62Z"/>
        <path class="cls-3" d="M176.09,53.87l2.32.06c-1.09,2.8-2.91,5-5.46,6.57-2.55,1.58-5.52,2.37-8.9,2.37-4.82,0-8.39-1.56-10.71-4.69-.09-.12-.17-.23-.25-.35,1.39-2.36,2.35-5.13,2.88-8.29l2.15-13.93.19.03-1.57,10.2c-.63,3.79-.1,6.77,1.59,8.94,1.69,2.18,4.31,3.27,7.87,3.27s6.62-1.1,9.03-3.31c.3-.28.59-.56.86-.87h0Z"/>
        <path class="cls-3" d="M156.88,24.98c1.51,2.87,1.92,6.41,1.24,10.63l-2.15,13.93c-.53,3.16-1.49,5.93-2.88,8.29-2.12-3.08-2.8-7.13-2.03-12.16l1.64-10.24c.62-4.16,2.01-7.64,4.18-10.45Z"/>
        <path class="cls-3" d="M155.45,22.84c.55.67,1.03,1.38,1.43,2.14-2.17,2.81-3.56,6.29-4.18,10.45l-1.64,10.24-.17-.03,1.55-10.03c.63-4.02.1-7.11-1.59-9.29s-4.37-3.27-8.04-3.27-6.78,1.09-9.16,3.27-3.91,5.27-4.6,9.29l-2.15,13.93c-.63,4.01-.1,7.11,1.59,9.29.53.68,1.16,1.26,1.88,1.72l-.2.51h-7.21c-1.91-2.99-2.49-6.83-1.74-11.52l2.15-13.93c.86-5.45,3.07-9.73,6.62-12.86,3.56-3.12,8.09-4.69,13.59-4.69s9.23,1.59,11.87,4.78h0Z"/>
        <path class="cls-3" d="M150.89,45.64l.17.03c-.77,5.03-.09,9.08,2.03,12.16-1.03,1.76-2.29,3.29-3.79,4.61-3.53,3.09-8.04,4.64-13.54,4.64-2.39,0-4.51-.32-6.35-.97l.76-5.05.2-.51c1.58,1.03,3.64,1.55,6.16,1.55,3.73,0,6.79-1.09,9.2-3.27s3.93-5.28,4.56-9.29l.6-3.9Z"/>
        <path class="cls-3" d="M130.17,61.06l-.76,5.05c-2.24-.78-4.08-2.03-5.52-3.76-.34-.41-.66-.84-.93-1.29h7.21,0Z"/>
        <path class="cls-3" d="M129.41,66.11l-.02.11h-14.62c-4.01,0-6.96-1.09-8.86-3.26-1.89-2.18-2.52-5.19-1.89-9.03l3.14-19.96h1.77l.85-5.07h-1.82l3.2-20.3h5.72l-7.18,45.33c-.4,2.29-.09,4.05.94,5.28,1.04,1.24,2.67,1.85,4.91,1.85h7.41c.27.45.59.88.93,1.29,1.44,1.73,3.28,2.98,5.52,3.76h0Z"/>
        <polygon class="cls-3" points="117.7 3.44 116.88 8.6 112.8 8.6 113.65 3.44 117.7 3.44"/>
        <path class="cls-3" d="M113.65,3.44l-.85,5.16h-17.46l.68-4.08c1.83-.72,3.9-1.08,6.2-1.08,0,0,11.43,0,11.43,0Z"/>
        <polygon class="cls-3" points="109.78 28.9 108.93 33.97 107.16 33.97 107.96 28.9 109.78 28.9"/>
        <polygon class="cls-3" points="107.96 28.9 107.16 33.97 96.89 33.97 97.75 28.9 107.96 28.9"/>
        <path class="cls-3" d="M96.2,3.44h6.02c-2.3,0-4.37.36-6.2,1.08l.18-1.08Z"/>
        <path class="cls-3" d="M95.34,8.6h5.93c-4.53,0-7.19,2.27-8,6.8l-2.15,13.5h-5.67l2.15-13.5c.45-2.69,1.41-4.95,2.88-6.8,0,0,4.86,0,4.86,0Z"/>
        <polygon class="cls-3" points="97.75 28.9 96.89 33.97 90.26 33.97 84.59 33.97 78.22 33.97 72.55 33.97 69.28 33.97 70.05 28.9 73.41 28.9 79.08 28.9 85.45 28.9 91.12 28.9 97.75 28.9"/>
        <path class="cls-3" d="M96.2,3.44l-.18,1.08c-1.33.51-2.53,1.22-3.61,2.11-.72.59-1.37,1.25-1.93,1.97h-1.25c-4.53,0-7.19,2.27-8,6.8l-2.15,13.5h-5.67l2.15-13.5c.63-3.73,2.23-6.65,4.81-8.77s5.85-3.19,9.81-3.19c0,0,6.02,0,6.02,0Z"/>
        <path class="cls-3" d="M96.02,4.52l-.68,4.08h-4.86c.56-.72,1.21-1.38,1.93-1.97,1.08-.89,2.28-1.6,3.61-2.11Z"/>
        <path class="cls-2" d="M89.23,8.6h1.25c-1.47,1.85-2.43,4.11-2.88,6.8l-2.15,13.5h-6.37l2.15-13.5c.81-4.53,3.47-6.8,8-6.8Z"/>
        <path class="cls-3" d="M90.26,33.97l-5.85,35.78c-.41,2.67-1.34,4.94-2.78,6.79h-10.89c4.53,0,7.2-2.26,8-6.79l5.85-35.78h5.67Z"/>
        <path class="cls-1" d="M84.59,33.97l-5.85,35.78c-.8,4.53-3.47,6.79-8,6.79h-1.15c1.44-1.85,2.37-4.12,2.79-6.79l5.84-35.78s6.37,0,6.37,0Z"/>
        <path class="cls-3" d="M70.74,76.54h10.89c-.57.72-1.21,1.38-1.94,1.98-2.59,2.12-5.85,3.18-9.81,3.18h-7.57l.09-.55c1.99-.51,3.74-1.39,5.25-2.63.73-.6,1.37-1.26,1.94-1.98h1.15Z"/>
        <path class="cls-3" d="M78.22,33.97l-5.84,35.78c-.42,2.67-1.35,4.94-2.79,6.79h-10.89c4.53,0,7.2-2.26,8-6.79l.58-3.53h1.66l.77-5.16h-1.59l4.43-27.09s5.67,0,5.67,0Z"/>
        <polygon class="cls-3" points="70.05 28.9 69.28 33.97 57.94 33.97 58.75 28.9 70.05 28.9"/>
        <polygon class="cls-3" points="69.71 61.06 68.94 66.22 67.28 66.22 68.12 61.06 69.71 61.06"/>
        <path class="cls-3" d="M63.17,76.54h6.42c-.57.72-1.21,1.38-1.94,1.98-1.51,1.24-3.26,2.12-5.25,2.63,0,0,.77-4.61.77-4.61Z"/>
        <polygon class="cls-3" points="68.12 61.06 67.28 66.22 32.47 66.22 33.29 61.06 47.95 61.06 53.8 24.08 39.17 24.08 39.99 18.92 60.34 18.92 58.75 28.9 58.01 28.9 57.24 33.97 57.94 33.97 53.63 61.06 68.12 61.06"/>
        <path class="cls-3" d="M63.65,1.38c.83.92,1.13,2.15.9,3.7s-.9,2.76-2.02,3.65-2.51,1.33-4.17,1.33-2.91-.44-3.74-1.33-1.14-2.1-.91-3.65.91-2.78,2.03-3.7c1.11-.92,2.5-1.38,4.17-1.38s2.91.46,3.74,1.38Z"/>
        <path class="cls-3" d="M63.17,76.54l-.77,4.61c-1.4.37-2.92.55-4.56.55h-7.57l.86-5.16s12.04,0,12.04,0Z"/>
        <path class="cls-3" d="M62.4,81.15l-.09.55h-4.47c1.64,0,3.16-.18,4.56-.55Z"/>
        <polygon class="cls-3" points="58.75 28.9 57.94 33.97 57.24 33.97 58.01 28.9 58.75 28.9"/>
        <polygon class="cls-3" points="51.13 76.54 50.27 81.7 0 81.7 .87 76.54 51.13 76.54"/>
        <path class="cls-3" d="M42.45,3.44l-2.46,15.48h-.29l-.78,5.16h.25l-5.88,36.98h-2.45l-.78,5.16h-3.26l1.2-7.48-2.61-.3c2.12-2.17,3.48-5.11,4.07-8.81l2.15-14.02c.57-3.6.2-6.49-1.12-8.66l2.67-.29,1.46-9.97,2.15-13.25s5.68,0,5.68,0Z"/>
        <polygon class="cls-3" points="39.99 18.92 39.17 24.08 38.92 24.08 39.7 18.92 39.99 18.92"/>
        <polygon class="cls-3" points="33.29 61.06 32.47 66.22 30.06 66.22 30.84 61.06 33.29 61.06"/>
        <path class="cls-3" d="M33.16,26.66l-2.67.29c-.14-.22-.28-.43-.43-.63-1.66-2.24-4.29-3.35-7.91-3.35s-6.61,1.06-8.98,3.18c-2.38,2.12-3.89,5.21-4.52,9.28l-2.23,14.37c-.64,4.07-.11,7.15,1.59,9.24,1.69,2.1,4.34,3.14,7.95,3.14s6.61-1.1,8.99-3.31c.15-.14.29-.28.44-.43l2.61.3c-1.15,2.64-2.95,4.69-5.42,6.15-2.46,1.46-5.47,2.19-9.03,2.19-4.58,0-8.07-1.59-10.45-4.77S-.06,54.96.74,49.8l2.24-14.37c.86-5.5,2.89-9.77,6.1-12.81s7.31-4.56,12.3-4.56c3.32,0,6.02.76,8.08,2.28,2.07,1.52,3.3,3.63,3.7,6.32Z"/>
      </g>
    </g>
  </g>
</svg>