<?xml version="1.0" encoding="UTF-8"?>
<svg id="Layer_2" data-name="Layer 2" xmlns="http://www.w3.org/2000/svg" viewBox="0 0 190.02 81.7">
  <defs>
    <style>
      .cls-1 {
        fill: #00a651;
      }

      .cls-2 {
        fill: #231f20;
      }

      .cls-3 {
        fill: #ed1c24;
      }
    </style>
  </defs>
  <g id="Layer_2-2" data-name="Layer 2">
    <g id="Layer_1-2" data-name="Layer 1-2">
      <g>
        <path class="cls-3" d="M89.23,8.6h1.25c-1.47,1.85-2.43,4.11-2.88,6.8l-2.15,13.5h-6.37l2.15-13.5c.81-4.53,3.47-6.8,8-6.8Z"/>
        <path class="cls-1" d="M84.59,33.97l-5.85,35.78c-.8,4.53-3.47,6.79-8,6.79h-1.15c1.44-1.85,2.37-4.12,2.79-6.79l5.84-35.78s6.37,0,6.37,0Z"/>
        <g>
          <path class="cls-2" d="M182.62,27.09c-.23-2.81-1.34-5.01-3.35-6.62-2.01-1.6-4.7-2.41-8.08-2.41-4.88,0-8.98,1.57-12.3,4.69-.74.69-1.41,1.43-2.01,2.23-.4-.76-.88-1.47-1.43-2.14-2.64-3.19-6.37-4.78-11.87-4.78s-10.03,1.57-13.59,4.69c-3.55,3.13-5.76,7.41-6.62,12.86l-2.15,13.93c-.75,4.69-.17,8.53,1.74,11.52h-7.41c-2.24,0-3.87-.61-4.91-1.85-1.03-1.23-1.34-2.99-.94-5.28l7.18-45.33h72.28l.86-5.16h-99.84c-3.96,0-7.23,1.07-9.81,3.19s-4.18,5.04-4.81,8.77l-2.15,13.5h-14.66l1.59-9.98h-20.35l2.46-15.48h-5.68l-2.15,13.25-1.46,9.97c-.4-2.69-1.63-4.8-3.7-6.32-2.06-1.52-4.76-2.28-8.08-2.28-4.99,0-9.09,1.52-12.3,4.56-3.21,3.04-5.24,7.31-6.1,12.81l-2.24,14.37c-.8,5.16-.02,9.33,2.36,12.51s5.87,4.77,10.45,4.77c3.56,0,6.57-.73,9.03-2.19,2.47-1.46,4.27-3.51,5.42-6.15l-1.2,7.48h40.48l-.58,3.53c-.8,4.53-3.47,6.79-8,6.79H.87l-.87,5.16h164.14c4.92,0,8.94-1.27,12.04-3.82,3.09-2.56,5.04-6.18,5.84-10.88l7.57-48.08h-5.68l-1.29,8.17ZM31.61,35.61l-2.15,14.02c-.59,3.7-1.95,6.64-4.07,8.81-.15.15-.29.29-.44.43-2.38,2.21-5.38,3.31-8.99,3.31s-6.26-1.04-7.95-3.14c-1.7-2.09-2.23-5.17-1.59-9.24l2.23-14.37c.63-4.07,2.14-7.16,4.52-9.28,2.37-2.12,5.36-3.18,8.98-3.18s6.25,1.11,7.91,3.35c.15.2.29.41.43.63,1.32,2.17,1.69,5.06,1.12,8.66ZM126.9,49.54l2.15-13.93c.69-4.02,2.22-7.11,4.6-9.29s5.49-3.27,9.16-3.27,6.35,1.09,8.04,3.27,2.22,5.27,1.59,9.29l-1.55,10.03-.6,3.9c-.63,4.01-2.15,7.11-4.56,9.29-2.41,2.18-5.47,3.27-9.2,3.27-2.52,0-4.58-.52-6.16-1.55-.72-.46-1.35-1.04-1.88-1.72-1.69-2.18-2.22-5.28-1.59-9.29ZM93.27,15.4c.81-4.53,3.47-6.8,8-6.8h9.89l-3.2,20.3h-16.84l2.15-13.5ZM81.23,15.4c.81-4.53,3.47-6.8,8-6.8h1.25c-1.47,1.85-2.43,4.11-2.88,6.8l-2.15,13.5h-6.37l2.15-13.5ZM33.29,61.06l5.88-36.98h14.63l-5.85,36.98h-14.66ZM53.63,61.06l4.31-27.09h14.61l-4.43,27.09h-14.49ZM70.74,76.54h-1.15c1.44-1.85,2.37-4.12,2.79-6.79l5.84-35.78h6.37l-5.85,35.78c-.8,4.53-3.47,6.79-8,6.79ZM176.95,62.96l-.6,4.04c-.52,3.09-1.75,5.46-3.7,7.09-1.95,1.64-4.47,2.45-7.57,2.45h-83.45c1.44-1.85,2.37-4.12,2.78-6.79l5.85-35.78h16.9l-3.14,19.96c-.63,3.84,0,6.85,1.89,9.03,1.9,2.17,4.85,3.26,8.86,3.26h14.62s3.98.86,6.37.86c5.5,0,10.01-1.55,13.54-4.64,1.5-1.32,2.76-2.85,3.79-4.61.08.12.16.23.25.35,2.32,3.13,5.89,4.69,10.71,4.69,3.38,0,6.35-.79,8.9-2.37,2.55-1.57,4.37-3.77,5.46-6.57l-1.46,9.03ZM181.25,35.61l-1.46,9.89c-.55,3.46-1.78,6.25-3.7,8.37h0c-.27.31-.56.59-.86.87-2.41,2.21-5.47,3.31-9.03,3.31s-6.18-1.09-7.87-3.27c-1.69-2.17-2.22-5.15-1.59-8.94l1.57-10.2.06-.38c.63-3.84,2.12-6.85,4.48-9.03,2.34-2.18,5.33-3.26,8.94-3.26s6.25,1.11,7.91,3.35c.3.4.56.84.79,1.3,1.02,2.08,1.28,4.75.76,7.99Z"/>
          <path class="cls-2" d="M58.36,10.06c1.66,0,3.05-.44,4.17-1.33,1.12-.89,1.79-2.1,2.02-3.65.23-1.55-.07-2.78-.9-3.7-.83-.92-2.07-1.38-3.74-1.38s-3.06.46-4.17,1.38c-1.12.92-1.8,2.15-2.03,3.7-.23,1.55.08,2.76.91,3.65.83.89,2.08,1.33,3.74,1.33Z"/>
        </g>
      </g>
    </g>
  </g>
</svg>