<?xml version="1.0" encoding="UTF-8"?>
<svg id="Layer_2" data-name="Layer 2" xmlns="http://www.w3.org/2000/svg" viewBox="0 0 183.45 78.1">
  <defs>
    <style>
      .cls-1 {
        fill: #00a651;
      }

      .cls-2 {
        fill: #231f20;
      }

      .cls-3 {
        fill: #ed1c24;
      }

      .cls-4 {
        fill: #d1d1d1;
      }
    </style>
  </defs>
  <g id="Layer_2-2" data-name="Layer 2">
    <polygon class="cls-4" points="171.43 78.1 0 78.1 12.03 0 183.45 0 171.43 78.1"/>
    <g id="Layer_1-2" data-name="Layer 1-2">
      <g>
        <path class="cls-3" d="M86.68,10.88h1.09c-1.28,1.62-2.12,3.59-2.52,5.94l-1.88,11.79h-5.57l1.88-11.79c.71-3.96,3.03-5.94,6.99-5.94Z"/>
        <path class="cls-1" d="M82.62,33.04l-5.11,31.26c-.7,3.96-3.03,5.93-6.99,5.93h-1c1.26-1.62,2.07-3.6,2.44-5.93l5.1-31.26s5.57,0,5.57,0Z"/>
        <g>
          <path class="cls-2" d="M168.27,27.03c-.2-2.46-1.17-4.38-2.93-5.78-1.76-1.4-4.11-2.11-7.06-2.11-4.26,0-7.85,1.37-10.75,4.1-.65.6-1.23,1.25-1.76,1.95-.35-.66-.77-1.28-1.25-1.87-2.31-2.79-5.57-4.18-10.37-4.18s-8.76,1.37-11.87,4.1c-3.1,2.73-5.03,6.47-5.78,11.24l-1.88,12.17c-.66,4.1-.15,7.45,1.52,10.06h-6.47c-1.96,0-3.38-.53-4.29-1.62-.9-1.07-1.17-2.61-.82-4.61l6.27-39.6h63.15l.75-4.51h-87.23c-3.46,0-6.32.93-8.57,2.79s-3.65,4.4-4.2,7.66l-1.88,11.79h-12.81l1.39-8.72h-17.78l2.15-13.52h-4.96l-1.88,11.58-1.28,8.71c-.35-2.35-1.42-4.19-3.23-5.52-1.8-1.33-4.16-1.99-7.06-1.99-4.36,0-7.94,1.33-10.75,3.98-2.8,2.66-4.58,6.39-5.33,11.19l-1.96,12.55c-.7,4.51-.02,8.15,2.06,10.93,2.08,2.78,5.13,4.17,9.13,4.17,3.11,0,5.74-.64,7.89-1.91,2.16-1.28,3.73-3.07,4.74-5.37l-1.05,6.54h35.37l-.51,3.08c-.7,3.96-3.03,5.93-6.99,5.93H9.48l-.76,4.51h143.41c4.3,0,7.81-1.11,10.52-3.34,2.7-2.24,4.4-5.4,5.1-9.51l6.61-42.01h-4.96l-1.13,7.14ZM36.34,34.47l-1.88,12.25c-.52,3.23-1.7,5.8-3.56,7.7-.13.13-.25.25-.38.38-2.08,1.93-4.7,2.89-7.85,2.89s-5.47-.91-6.95-2.74c-1.49-1.83-1.95-4.52-1.39-8.07l1.95-12.55c.55-3.56,1.87-6.26,3.95-8.11,2.07-1.85,4.68-2.78,7.85-2.78s5.46.97,6.91,2.93c.13.17.25.36.38.55,1.15,1.9,1.48,4.42.98,7.57ZM119.59,46.64l1.88-12.17c.6-3.51,1.94-6.21,4.02-8.12s4.8-2.86,8-2.86,5.55.95,7.02,2.86,1.94,4.6,1.39,8.12l-1.35,8.76-.52,3.41c-.55,3.5-1.88,6.21-3.98,8.12-2.11,1.9-4.78,2.86-8.04,2.86-2.2,0-4-.45-5.38-1.35-.63-.4-1.18-.91-1.64-1.5-1.48-1.9-1.94-4.61-1.39-8.12ZM90.21,16.82c.71-3.96,3.03-5.94,6.99-5.94h8.64l-2.8,17.74h-14.71l1.88-11.79ZM79.69,16.82c.71-3.96,3.03-5.94,6.99-5.94h1.09c-1.28,1.62-2.12,3.59-2.52,5.94l-1.88,11.79h-5.57l1.88-11.79ZM37.8,56.71l5.14-32.31h12.78l-5.11,32.31h-12.81ZM55.57,56.71l3.77-23.67h12.76l-3.87,23.67h-12.66ZM70.52,70.23h-1c1.26-1.62,2.07-3.6,2.44-5.93l5.1-31.26h5.57l-5.11,31.26c-.7,3.96-3.03,5.93-6.99,5.93ZM163.32,58.37l-.52,3.53c-.45,2.7-1.53,4.77-3.23,6.19-1.7,1.43-3.91,2.14-6.61,2.14h-72.91c1.26-1.62,2.07-3.6,2.43-5.93l5.11-31.26h14.77l-2.74,17.44c-.55,3.35,0,5.98,1.65,7.89,1.66,1.9,4.24,2.85,7.74,2.85h12.77s3.48.75,5.57.75c4.81,0,8.75-1.35,11.83-4.05,1.31-1.15,2.41-2.49,3.31-4.03.07.1.14.2.22.31,2.03,2.73,5.15,4.1,9.36,4.1,2.95,0,5.55-.69,7.78-2.07,2.23-1.37,3.82-3.29,4.77-5.74l-1.28,7.89ZM167.07,34.47l-1.28,8.64c-.48,3.02-1.56,5.46-3.23,7.31h0c-.24.27-.49.52-.75.76-2.11,1.93-4.78,2.89-7.89,2.89s-5.4-.95-6.88-2.86c-1.48-1.9-1.94-4.5-1.39-7.81l1.37-8.91.05-.33c.55-3.35,1.85-5.98,3.91-7.89,2.04-1.9,4.66-2.85,7.81-2.85s5.46.97,6.91,2.93c.26.35.49.73.69,1.14.89,1.82,1.12,4.15.66,6.98Z"/>
          <path class="cls-2" d="M59.71,12.15c1.45,0,2.66-.38,3.64-1.16.98-.78,1.56-1.83,1.76-3.19.2-1.35-.06-2.43-.79-3.23-.73-.8-1.81-1.21-3.27-1.21s-2.67.4-3.64,1.21c-.98.8-1.57,1.88-1.77,3.23-.2,1.35.07,2.41.8,3.19.73.78,1.82,1.16,3.27,1.16Z"/>
        </g>
      </g>
    </g>
  </g>
</svg>